<?xml version="1.0" encoding="UTF-8" standalone="no"?>
<!-- Generator: Adobe Illustrator 16.2.1, SVG Export Plug-In . SVG Version: 6.00 Build 0)  -->

<svg
   xmlns:dc="http://purl.org/dc/elements/1.1/"
   xmlns:cc="http://creativecommons.org/ns#"
   xmlns:rdf="http://www.w3.org/1999/02/22-rdf-syntax-ns#"
   xmlns:svg="http://www.w3.org/2000/svg"
   xmlns="http://www.w3.org/2000/svg"
   xmlns:sodipodi="http://sodipodi.sourceforge.net/DTD/sodipodi-0.dtd"
   xmlns:inkscape="http://www.inkscape.org/namespaces/inkscape"
   version="1.1"
   x="0px"
   y="0px"
   width="70px"
   height="110px"
   viewBox="0 0 70 110"
   style="enable-background:new 0 0 70 110;"
   xml:space="preserve"
   id="svg8"
   sodipodi:docname="fmg-pin.svg"
   inkscape:version="0.92.3 (2405546, 2018-03-11)"><metadata
   id="metadata14"><rdf:RDF><cc:Work
       rdf:about=""><dc:format>image/svg+xml</dc:format><dc:type
         rdf:resource="http://purl.org/dc/dcmitype/StillImage" /><dc:title></dc:title></cc:Work></rdf:RDF></metadata><defs
   id="defs12" /><sodipodi:namedview
   pagecolor="#ffffff"
   bordercolor="#666666"
   borderopacity="1"
   objecttolerance="10"
   gridtolerance="10"
   guidetolerance="10"
   inkscape:pageopacity="0"
   inkscape:pageshadow="2"
   inkscape:window-width="1920"
   inkscape:window-height="1017"
   id="namedview10"
   showgrid="false"
   inkscape:zoom="2.1454545"
   inkscape:cx="35"
   inkscape:cy="-70.435782"
   inkscape:window-x="-8"
   inkscape:window-y="-8"
   inkscape:window-maximized="1"
   inkscape:current-layer="svg8" />

<g
   id="nyt_x5F_exporter_x5F_info"
   style="display:none;">
</g>
<path
   style="color:#000000;display:inline;overflow:visible;visibility:visible;fill:#20bbdf;fill-opacity:1;fill-rule:nonzero;stroke:none;stroke-width:1.04466784;marker:none;enable-background:accumulate"
   d="m 35.420803,31.771278 c -18.188941,0 -32.9308874,14.741988 -32.9308874,32.930962 0,15.287418 10.4120254,28.141378 24.5342214,31.853588 l 8.086341,10.340692 7.928217,-10.147472 C 57.553721,93.310898 68.35754,80.268388 68.35754,64.70224 c 0,-18.188974 -14.747794,-32.930962 -32.936737,-32.930962 z"
   id="path2982-5-04-3-5"
   inkscape:connector-curvature="0"
   inkscape:export-filename="/home/jonkri/fixamingata/logo/text4249-3-9_.png"
   inkscape:export-xdpi="24.84"
   inkscape:export-ydpi="24.84" /><path
   style="color:#000000;display:inline;overflow:visible;visibility:visible;fill:#ffffff;fill-opacity:1;fill-rule:nonzero;stroke:none;stroke-width:4.4224267;marker:none;enable-background:accumulate"
   d="m 36.178688,44.219931 c -11.296138,0 -20.482256,9.186129 -20.482256,20.482309 0,11.296178 9.186118,20.488188 20.482256,20.488188 11.296149,0 20.482263,-9.19201 20.482263,-20.488188 0,-11.29618 -9.186114,-20.482309 -20.482263,-20.482309 z m 0,2.810608 c 9.777186,0 17.671662,7.894484 17.671662,17.671701 0,9.777209 -7.894476,17.677578 -17.671662,17.677578 -9.777182,0 -17.671656,-7.900369 -17.671656,-17.677578 0,-4.407851 1.603658,-8.431678 4.262742,-11.523506 l 6.300444,6.300459 1.2999,1.305767 0.667522,0.667514 3.091658,3.085814 c 0.03721,0.03728 0.07147,0.07278 0.111244,0.105392 0.0016,0.0023 0.0047,0 0.0062,0 0.03852,0.03132 0.0765,0.06085 0.117105,0.08784 0.0016,0 0.0047,-0.0023 0.0062,0 0.04054,0.0269 0.08073,0.05364 0.122964,0.07612 0.04511,0.02426 0.088,0.04519 0.134684,0.06441 0.04527,0.0186 0.08829,0.03294 0.134676,0.04689 0.09488,0.02907 0.189229,0.04899 0.286902,0.05852 0.0953,0.0094 0.191632,0.0094 0.286924,0 0.142932,-0.0138 0.286103,-0.04961 0.421594,-0.1054 0.180912,-0.07441 0.348817,-0.184865 0.497701,-0.333765 0.03721,-0.03728 0.07278,-0.07743 0.105401,-0.117112 0.130273,-0.158992 0.225233,-0.335214 0.281057,-0.521126 0.02798,-0.09295 0.04341,-0.185407 0.05271,-0.281057 0.0091,-0.09374 0.0088,-0.193143 0,-0.286932 -1.86e-4,-0.0023 0,-0.0039 0,-0.0062 -0.0095,-0.09565 -0.0248,-0.188082 -0.05271,-0.281065 -0.01349,-0.0448 -0.03496,-0.09097 -0.05263,-0.134668 0,-0.0023 0,-0.0047 0,-0.0062 -0.07449,-0.181199 -0.184857,-0.348802 -0.333765,-0.49771 L 33.169759,59.320418 32.502245,58.652896 31.196469,57.34712 24.919456,51.070086 c 3.055671,-2.523715 6.977834,-4.040221 11.259984,-4.040221 z m -0.345477,6.236039 c -0.342105,0 -0.680559,0.130173 -0.942711,0.392309 l -3.033105,3.027269 1.305744,1.305752 3.97584,-3.975832 -0.357189,-0.357189 c -0.262128,-0.262136 -0.60645,-0.392309 -0.948579,-0.392309 z m 1.97329,1.41702 -3.97584,3.975832 3.085813,3.085821 c 0.951106,0.951106 0.951106,2.503601 0,3.454706 -0.951098,0.951114 -2.503592,0.951114 -3.454698,0 l -3.085813,-3.085821 -3.928977,3.929 9.099324,9.099352 c 0,0 6.624736,0.69455 9.292545,-1.973287 2.667816,-2.667816 2.06697,-9.386264 2.06697,-9.386264 z m -5.410409,5.287444 c 0.175556,0 0.352058,0.06519 0.48599,0.199089 0.267865,0.267872 0.267865,0.70413 0,0.972003 -0.267872,0.267864 -0.704138,0.267864 -0.972003,0 -0.267864,-0.267873 -0.267864,-0.704131 0,-0.972003 0.13394,-0.133933 0.310457,-0.199089 0.486013,-0.199089 z m -3.993404,0.169813 -2.980409,2.980413 c -0.524296,0.524288 -0.524296,1.372869 0,1.897165 l 0.357186,0.357197 3.928976,-3.929015 z m 6.692745,2.523691 c 0.17554,0 0.346205,0.07108 0.480145,0.204948 0.267865,0.267865 0.267865,0.698271 0,0.966136 -0.267872,0.267872 -0.69827,0.267872 -0.966143,0 -0.267864,-0.267865 -0.267864,-0.698271 0,-0.966136 0.13394,-0.13394 0.310457,-0.204948 0.485998,-0.204948 z"
   id="rect3772-9-2-4-0"
   inkscape:connector-curvature="0"
   inkscape:export-filename="/home/jonkri/fixamingata/logo/text4249-3-9_.png"
   inkscape:export-xdpi="24.84"
   inkscape:export-ydpi="24.84" /></svg>