<?xml version="1.0" encoding="UTF-8" standalone="no"?>
<!-- Generator: Adobe Illustrator 16.2.1, SVG Export Plug-In . SVG Version: 6.00 Build 0)  -->

<svg
   xmlns:dc="http://purl.org/dc/elements/1.1/"
   xmlns:cc="http://creativecommons.org/ns#"
   xmlns:rdf="http://www.w3.org/1999/02/22-rdf-syntax-ns#"
   xmlns:svg="http://www.w3.org/2000/svg"
   xmlns="http://www.w3.org/2000/svg"
   xmlns:sodipodi="http://sodipodi.sourceforge.net/DTD/sodipodi-0.dtd"
   xmlns:inkscape="http://www.inkscape.org/namespaces/inkscape"
   version="1.1"
   x="0px"
   y="0px"
   width="640px"
   height="640px"
   viewBox="0 0 640 640"
   style="enable-background:new 0 0 640 640;"
   xml:space="preserve"
   id="svg2"
   inkscape:version="0.48.5 r10040"
   sodipodi:docname="radar.svg"><metadata
     id="metadata74"><rdf:RDF><cc:Work
         rdf:about=""><dc:format>image/svg+xml</dc:format><dc:type
           rdf:resource="http://purl.org/dc/dcmitype/StillImage" /></cc:Work></rdf:RDF></metadata><defs
     id="defs72" /><sodipodi:namedview
     pagecolor="#ffffff"
     bordercolor="#666666"
     borderopacity="1"
     objecttolerance="10"
     gridtolerance="10"
     guidetolerance="10"
     inkscape:pageopacity="0"
     inkscape:pageshadow="2"
     inkscape:window-width="2560"
     inkscape:window-height="1534"
     id="namedview70"
     showgrid="false"
     inkscape:zoom="2.085965"
     inkscape:cx="335.66352"
     inkscape:cy="189.41445"
     inkscape:window-x="0"
     inkscape:window-y="27"
     inkscape:window-maximized="1"
     inkscape:current-layer="svg2" /><g
     id="grid"><g
       style="opacity:0.2;"
       id="g5"><g
         id="g7"><path
           style="fill:none;stroke:#FFFFFF;stroke-width:2;stroke-miterlimit:10;"
           d="M320,640C143.125,640,0,496.875,0,320           S143.125,0,320,0s320,143.125,320,320S496.875,640,320,640z"
           id="path9" /><path
           style="fill:none;stroke:#FFFFFF;stroke-width:2;stroke-miterlimit:10;"
           d="M586.719,320           c0-147.344-119.375-266.719-266.719-266.719S53.281,172.656,53.281,320S172.656,586.719,320,586.719S586.719,467.344,586.719,320           z"
           id="path11" /><path
           style="fill:none;stroke:#FFFFFF;stroke-width:2;stroke-miterlimit:10;"
           d="M320,533.281           c-117.969,0-213.281-95.312-213.281-213.281S202.031,106.719,320,106.719S533.281,202.031,533.281,320           S437.969,533.281,320,533.281z"
           id="path13" /><path
           style="fill:none;stroke:#FFFFFF;stroke-width:2;stroke-miterlimit:10;"
           d="M480,320c0-88.438-71.562-160-160-160           s-160,71.562-160,160s71.562,160,160,160S480,408.438,480,320z"
           id="path15" /><path
           style="fill:none;stroke:#FFFFFF;stroke-width:2;stroke-miterlimit:10;"
           d="M320,426.719           c-58.906,0-106.719-47.812-106.719-106.719S261.094,213.281,320,213.281S426.719,261.094,426.719,320           S378.906,426.719,320,426.719z"
           id="path17" /><path
           style="fill:none;stroke:#FFFFFF;stroke-width:2;stroke-miterlimit:10;"
           d="M373.281,320           c0-29.531-23.75-53.281-53.281-53.281s-53.281,23.75-53.281,53.281s23.75,53.281,53.281,53.281S373.281,349.531,373.281,320z"
           id="path19" /></g><g
         id="g21"><line
           style="fill:none;stroke:#FFFFFF;stroke-width:2;stroke-miterlimit:10;"
           x1="320"
           y1="320"
           x2="320"
           y2="640"
           id="line23" /><line
           style="fill:none;stroke:#FFFFFF;stroke-width:2;stroke-miterlimit:10;"
           x1="320"
           y1="320"
           x2="546.25"
           y2="546.25"
           id="line25" /><line
           style="fill:none;stroke:#FFFFFF;stroke-width:2;stroke-miterlimit:10;"
           x1="320"
           y1="320"
           x2="640"
           y2="320"
           id="line27" /><line
           style="fill:none;stroke:#FFFFFF;stroke-width:2;stroke-miterlimit:10;"
           x1="320"
           y1="320"
           x2="546.25"
           y2="93.75"
           id="line29" /><line
           style="fill:none;stroke:#FFFFFF;stroke-width:2;stroke-miterlimit:10;"
           x1="320"
           y1="320"
           x2="320"
           y2="0"
           id="line31" /><line
           style="fill:none;stroke:#FFFFFF;stroke-width:2;stroke-miterlimit:10;"
           x1="320"
           y1="320"
           x2="93.75"
           y2="93.75"
           id="line33" /><line
           style="fill:none;stroke:#FFFFFF;stroke-width:2;stroke-miterlimit:10;"
           x1="320"
           y1="320"
           x2="0"
           y2="320"
           id="line35" /><line
           style="fill:none;stroke:#FFFFFF;stroke-width:2;stroke-miterlimit:10;"
           x1="320"
           y1="320"
           x2="93.75"
           y2="546.25"
           id="line37" /></g></g></g><path
     style="color:#000000;fill:#20bbdf;fill-opacity:1;fill-rule:nonzero;stroke:none;stroke-width:3.54330707;marker:none;visibility:visible;display:inline;overflow:visible;enable-background:accumulate"
     d="m 319.99008,222.511 c -61.6933,0 -111.69508,50.00191 -111.69508,111.69533 0,51.85193 35.31554,95.44999 83.21522,108.04107 l 27.42729,35.0736 26.89097,-34.4182 C 395.06056,431.24124 431.705,387.00364 431.705,334.20633 431.705,272.51291 381.68339,222.511 319.99008,222.511 z"
     id="path2982-5-04-3-5"
     inkscape:connector-curvature="0"
     inkscape:export-filename="/home/jonkri/fixamingata/logo/text4249-3-9_.png"
     inkscape:export-xdpi="24.84"
     inkscape:export-ydpi="24.84" /><path
     style="color:#000000;fill:#ffffff;fill-opacity:1;fill-rule:nonzero;stroke:none;stroke-width:15;marker:none;visibility:visible;display:inline;overflow:visible;enable-background:accumulate"
     d="m 322.56067,264.73439 c -38.31428,0 -69.47177,31.15753 -69.47177,69.47194 0,38.3144 31.15749,69.49188 69.47177,69.49188 38.31433,0 69.47181,-31.17748 69.47181,-69.49188 0,-38.31441 -31.15748,-69.47194 -69.47181,-69.47194 z m 0,9.53302 c 33.16229,0 59.93881,26.77653 59.93881,59.93892 0,33.16235 -26.77652,59.95886 -59.93881,59.95886 -33.16227,0 -59.93877,-26.79651 -59.93877,-59.95886 0,-14.95056 5.43928,-28.5986 14.45838,-39.08545 l 21.36985,21.3699 4.40902,4.4289 2.26408,2.26409 10.48631,10.46647 c 0.12631,0.12631 0.24253,0.24693 0.37731,0.35748 0.005,0.007 0.0154,0 0.0207,0 0.13073,0.10639 0.25962,0.20631 0.3972,0.29792 0.005,0 0.0155,-0.007 0.0207,0 0.13746,0.0911 0.27381,0.18198 0.41709,0.25807 0.15298,0.0823 0.29846,0.15323 0.45679,0.21846 0.15349,0.063 0.29946,0.11158 0.4568,0.15894 0.32179,0.0986 0.64184,0.16617 0.97313,0.19854 0.32324,0.0318 0.64997,0.0318 0.9732,0 0.48478,-0.0468 0.97038,-0.16827 1.42996,-0.3575 0.6136,-0.25237 1.18312,-0.62702 1.6881,-1.13208 0.12632,-0.12631 0.24694,-0.26249 0.3575,-0.3972 0.44186,-0.53928 0.76395,-1.13699 0.95329,-1.76756 0.0948,-0.31529 0.14727,-0.62886 0.17886,-0.9533 0.0311,-0.31797 0.0298,-0.65511 0,-0.97321 -6.4e-4,-0.007 0,-0.0129 0,-0.0207 -0.0319,-0.32443 -0.0842,-0.63795 -0.17886,-0.95332 -0.0458,-0.15195 -0.11855,-0.30854 -0.17862,-0.45676 0,-0.007 0,-0.0154 0,-0.0207 -0.25263,-0.6146 -0.62701,-1.18308 -1.13207,-1.68815 l -10.46642,-10.46644 -2.26408,-2.26411 -4.42893,-4.42891 -21.29038,-21.29047 c 10.36423,-8.55994 23.66743,-13.70366 38.19165,-13.70366 z m -1.17179,21.15142 c -1.16035,0 -2.30831,0.4415 -3.19748,1.33063 l -10.28771,10.26788 4.42885,4.42887 13.48526,-13.48525 -1.21153,-1.2115 c -0.88909,-0.88913 -2.05695,-1.33063 -3.21739,-1.33063 z m 6.693,4.80623 -13.48525,13.48525 10.46647,10.46649 c 3.22596,3.22599 3.22596,8.49171 0,11.71769 -3.22595,3.22598 -8.49168,3.22598 -11.71765,0 l -10.46647,-10.46651 -13.32632,13.32642 30.86311,30.86321 c 0,0 22.46979,2.35573 31.51847,-6.69302 9.04874,-9.04872 7.01076,-31.83634 7.01076,-31.83634 l -30.86312,-30.86319 z m -18.35103,17.93398 c 0.59544,0 1.19411,0.22105 1.64837,0.67526 0.90856,0.90857 0.90856,2.38828 0,3.29685 -0.90856,0.90855 -2.38827,0.90855 -3.29682,0 -0.90856,-0.90857 -0.90856,-2.38828 0,-3.29685 0.45429,-0.45426 1.05301,-0.67526 1.64845,-0.67526 z m -13.54483,0.57599 -10.10896,10.10896 c -1.77831,1.77829 -1.77831,4.65651 0,6.4348 l 1.2115,1.21153 13.32631,-13.32643 -4.42885,-4.42886 z m 22.70046,8.55985 c 0.59541,0 1.17426,0.24098 1.62856,0.69515 0.90856,0.90855 0.90856,2.36839 0,3.27692 -0.90857,0.90858 -2.36841,0.90858 -3.27696,0 -0.90855,-0.90853 -0.90855,-2.36837 0,-3.27692 0.45429,-0.4543 1.05301,-0.69515 1.6484,-0.69515 z"
     id="rect3772-9-2-4-0"
     inkscape:connector-curvature="0"
     inkscape:export-filename="/home/jonkri/fixamingata/logo/text4249-3-9_.png"
     inkscape:export-xdpi="24.84"
     inkscape:export-ydpi="24.84" /></svg>