<?xml version="1.0" encoding="UTF-8" standalone="no"?>
<svg width="35px" height="55px" viewBox="0 0 35 55" version="1.1" xmlns="http://www.w3.org/2000/svg" xmlns:xlink="http://www.w3.org/1999/xlink">
    <!-- Generator: Sketch 41.2 (35397) - http://www.bohemiancoding.com/sketch -->
    <title>fms-pin</title>
    <desc>Created with Sketch.</desc>
    <defs></defs>
    <g stroke="none" stroke-width="1" fill="none" fill-rule="evenodd">
        <g>
            <g transform="translate(1.000000, 0.000000)">
                <path d="M20.9002058,42.797102 C20.1120881,42.2502892 19.8564824,41.2449421 20.3854443,40.46072 C25.127463,33.4250046 32.9900017,22.9798514 32.9900017,15.8567146 C32.9900017,7.09571049 25.5676729,0 16.4954446,0 C7.42232881,0 0,7.09571049 0,15.8567146 C0,22.9798514 8.14388247,33.9135365 12.8299875,40.8601162 C13.3261111,41.593771 13.143282,42.5451224 12.4456914,43.1047914 C10.4922601,44.6732356 9.43611143,47.2410275 10.1922784,49.9999467 C10.8144298,52.2703341 12.7394604,54.1301833 15.1011509,54.6855668 C19.6692157,55.7611939 23.7935206,52.5317414 23.7935206,48.2078062 C23.7935206,45.9794155 22.64862,44.0081467 20.9002058,42.797102" fill="#EED11C"></path>
                <path d="M16.879503,50.2896612 C15.6098323,50.2896612 14.6124866,49.1265395 14.9581977,47.8415262 C15.1332637,47.1942983 15.6805661,46.6620951 16.3481157,46.4929918 C17.6708367,46.156502 18.8697736,47.1256269 18.8697736,48.35742 C18.8697736,49.4432863 17.9749918,50.2896612 16.879503,50.2896612 Z M17.837061,8.45642448 C14.717703,7.94310585 11.4047115,9.15687265 9.41355668,11.5449202 C5.47368735,16.2695118 7.38172999,22.9572466 12.6779188,25.279198 C13.6478552,25.7049606 14.6522743,25.9444521 15.6558092,26.0311497 L15.5532453,26.0749277 L15.5532453,32.7952815 L23.7654326,22.4808389 L23.7592434,22.4834141 C24.1350164,21.9864049 24.4656966,21.4447593 24.7397898,20.8567605 C27.1323586,15.7149903 24.0103481,9.47190265 17.837061,8.45642448 Z" fill="#FFFFFF"></path>
            </g>
        </g>
    </g>
</svg>